<svg xmlns="http://www.w3.org/2000/svg" viewBox="0 0 100 100" fill="none" stroke="currentColor" stroke-width="8" stroke-linecap="butt" stroke-linejoin="miter" role="img" aria-label="syokan">
  <path d="M32 15 C24 15,24 21,24 31 L24 42 C24 45,23 46.5,21 48 L13.5 53 L21 58 C23 59.5,24 61,24 64 L24 75 C24 85,24 91,32 91"/>
  <path d="M68 15 C76 15,76 21,76 31 L76 42 C76 45,77 46.5,79 48 L86.5 53 L79 58 C77 59.5,76 61,76 64 L76 75 C76 85,76 91,68 91"/>
  <path d="M50 13 L58.5 21.5 L58.5 28.5 L50 20 L41.5 28.5 L41.5 21.5 Z M41 31.5 H59 V49 H41 Z M47.25 37.5 H52.75 V43 H47.25 Z M36 53 H64 V70 H36 Z M41.5 58.5 H58.5 V64.5 H41.5 Z M36 74 H64 V91 H36 Z M41.5 79.5 H58.5 V85.5 H41.5 Z" fill="currentColor" fill-rule="evenodd" stroke="none"/>
</svg>
