<svg xmlns="http://www.w3.org/2000/svg" viewBox="0 0 100 100" fill="none" stroke="currentColor" stroke-width="3.2" stroke-linecap="round" stroke-linejoin="round" role="img" aria-label="syokan">
  <path d="M34 23 C27 23,27 29,27 39 C27 45,23 47,18 50 C23 53,27 55,27 61 C27 71,27 77,34 77"/>
  <path d="M66 23 C73 23,73 29,73 39 C73 45,77 47,82 50 C77 53,73 55,73 61 C73 71,73 77,66 77"/>
  <path d="M50 38.5 C50.79 46.91,53.09 49.21,61.5 50 C53.09 50.79,50.79 53.09,50 61.5 C49.21 53.09,46.91 50.79,38.5 50 C46.91 49.21,49.21 46.91,50 38.5 Z" fill="currentColor" stroke="none"/>
</svg>
